<?xml version="1.0" standalone="no"?>
<!DOCTYPE svg PUBLIC "-//W3C//DTD SVG 20010904//EN"
 "http://www.w3.org/TR/2001/REC-SVG-20010904/DTD/svg10.dtd">
<svg version="1.0" xmlns="http://www.w3.org/2000/svg"
 width="512.000000pt" height="512.000000pt" viewBox="0 0 512.000000 512.000000"
 preserveAspectRatio="xMidYMid meet">
<metadata>
Created by potrace 1.11, written by Peter Selinger 2001-2013
</metadata>
<g transform="translate(0.000000,512.000000) scale(0.100000,-0.100000)"
fill="#000000" stroke="none">
<path d="M3786 4200 c-21 -96 -46 -209 -56 -250 -10 -41 -21 -88 -24 -105 -3
-16 -7 -39 -10 -50 -6 -20 -138 -617 -171 -770 -2 -11 -6 -29 -9 -40 -10 -44
-102 -456 -110 -495 -3 -14 -12 -56 -21 -95 -20 -92 -21 -94 -40 -185 -10 -47
-111 -501 -120 -537 l-5 -23 -1210 0 c-756 0 -1211 4 -1215 10 -5 8 -120 514
-145 640 -15 74 -19 91 -24 108 -3 9 -8 31 -11 47 -6 37 -3 23 -60 280 -53
245 -101 467 -110 510 -3 17 -7 41 -10 55 -3 14 -9 50 -15 80 -10 57 -15 80
-27 140 -4 19 -6 38 -5 43 3 10 16 9 -176 13 -95 3 -171 1 -168 -4 3 -5 8 -24
11 -43 3 -19 12 -62 20 -95 8 -34 17 -74 20 -88 3 -14 7 -38 10 -52 3 -14 12
-54 20 -88 8 -33 16 -72 19 -86 2 -14 12 -56 21 -95 9 -38 19 -81 21 -94 3
-12 11 -51 19 -85 8 -33 17 -76 20 -95 3 -19 8 -37 10 -41 2 -4 7 -22 10 -41
3 -19 12 -62 20 -95 8 -34 16 -73 19 -85 4 -20 17 -79 41 -189 2 -8 12 -55 24
-105 11 -49 27 -121 35 -160 8 -38 22 -101 31 -140 15 -67 17 -80 30 -149 4
-16 8 -33 10 -36 2 -4 7 -20 9 -36 7 -37 12 -57 26 -119 6 -27 13 -59 16 -70
21 -107 27 -131 34 -140 10 -12 2908 -14 2926 -2 7 4 15 24 20 44 4 21 8 40 9
43 1 6 13 65 19 95 2 11 9 40 16 65 7 25 13 52 14 60 1 8 5 26 9 40 4 14 9 36
11 50 2 14 21 95 40 180 20 85 39 168 41 183 3 15 21 94 39 175 19 81 37 161
39 177 3 17 8 39 11 50 3 11 12 54 21 95 9 41 20 91 25 110 5 19 11 46 14 60
2 14 14 68 26 120 12 52 23 104 26 115 10 50 87 401 114 520 12 50 23 100 26
113 4 20 44 201 59 267 3 11 7 34 11 50 3 17 10 47 15 67 l10 37 432 0 c237 0
465 0 505 1 l72 0 0 158 0 157 -633 0 -634 0 -37 -175z"/>
<path d="M2813 3682 l-73 -3 0 -117 c-1 -143 -1 -1420 0 -1515 l0 -68 157 3
157 3 1 844 c0 553 -3 845 -10 847 -15 6 -150 9 -232 6z"/>
<path d="M892 3229 c-24 -22 -42 -45 -40 -49 2 -5 38 -44 80 -88 l77 -79 -79
-77 c-44 -43 -80 -81 -80 -84 1 -14 71 -82 84 -82 7 0 34 21 58 48 25 26 60
60 77 77 l31 29 83 -81 82 -82 43 40 c23 22 42 43 42 47 0 4 -36 43 -80 87
l-80 79 42 45 c24 25 60 60 81 79 20 19 37 38 37 41 0 4 -12 21 -27 37 -57 61
-52 62 -142 -28 -44 -45 -84 -78 -89 -74 -4 3 -41 40 -82 81 l-76 75 -42 -41z"/>
<path d="M2140 3108 c-2 -605 0 -1111 4 -1115 3 -3 227 -6 296 -4 13 1 15 78
15 631 l0 630 -157 0 -158 0 0 -142z"/>
<path d="M1540 2408 l0 -418 65 -1 c36 0 92 0 125 0 33 0 75 0 93 0 l32 1 0
417 0 418 -158 0 -157 0 0 -417z"/>
<path d="M963 2402 c-23 -3 -23 -3 -23 -208 l0 -204 45 -1 c25 0 72 0 105 0
33 0 84 0 113 0 l53 1 0 205 c0 133 -4 205 -11 206 -36 3 -264 3 -282 1z"/>
<path d="M1010 1166 c-158 -41 -264 -219 -228 -381 23 -101 100 -192 196 -232
70 -29 188 -26 257 7 80 38 165 141 182 220 8 37 5 129 -6 166 -23 86 -109
178 -197 213 -44 17 -150 21 -204 7z"/>
<path d="M2793 1161 c-225 -76 -293 -367 -126 -534 61 -62 135 -92 223 -92 41
0 84 3 95 6 79 21 166 95 205 174 35 70 36 208 2 275 -73 148 -247 222 -399
171z"/>
</g>
</svg>
