<?xml version="1.0" standalone="no"?>
<!DOCTYPE svg PUBLIC "-//W3C//DTD SVG 20010904//EN"
 "http://www.w3.org/TR/2001/REC-SVG-20010904/DTD/svg10.dtd">
<svg version="1.0" xmlns="http://www.w3.org/2000/svg"
 width="1010.000000pt" height="1010.000000pt" viewBox="0 0 1010.000000 1010.000000"
 preserveAspectRatio="xMidYMid meet">
<metadata>
Created by potrace 1.11, written by Peter Selinger 2001-2013
</metadata>
<g transform="translate(0.000000,1010.000000) scale(0.100000,-0.100000)"
fill="#283b4f" stroke="none">
<path d="M10095 4980 c0 -2648 1 -3732 2 -2407 2 1324 2 3490 0 4815 -1 1324
-2 240 -2 -2408z"/>
<path d="M257 9165 c-92 -23 -192 -122 -218 -215 -7 -25 -13 -76 -13 -115 0
-80 27 -145 91 -216 75 -83 12 -68 1118 -254 440 -74 809 -137 821 -140 18 -4
27 -28 61 -152 23 -82 107 -383 187 -670 80 -287 152 -546 160 -575 8 -29 40
-143 71 -253 74 -264 273 -977 290 -1040 7 -27 106 -383 220 -790 114 -407
222 -794 240 -860 67 -242 146 -511 162 -553 22 -57 93 -135 147 -162 36 -17
71 -22 192 -28 82 -4 1467 -7 3079 -6 l2930 1 50 25 c67 35 127 94 162 159 25
48 28 64 28 144 -1 78 -5 97 -27 141 -34 65 -100 130 -158 158 l-45 21 -2900
3 c-1595 2 -2901 4 -2902 6 -3 3 -51 171 -78 271 -12 48 -183 658 -500 1795
-79 283 -214 765 -299 1070 -177 634 -289 1035 -383 1365 -36 127 -72 255 -80
285 -21 76 -47 123 -94 170 -66 66 -109 81 -342 120 -29 5 -158 27 -287 50
-129 22 -251 43 -270 46 -37 5 -131 21 -166 28 -12 2 -37 7 -55 10 -19 3 -212
34 -429 70 -601 99 -690 109 -763 91z"/>
<path d="M5573 8846 c-58 -19 -103 -49 -137 -92 -40 -50 -238 -316 -381 -511
-65 -90 -125 -163 -132 -163 -8 0 -68 43 -133 95 -155 124 -195 145 -275 145
-107 0 -194 -46 -242 -127 -49 -84 -32 -229 34 -283 10 -8 72 -60 138 -115 66
-55 140 -116 165 -135 25 -19 47 -37 50 -41 3 -3 34 -27 69 -53 153 -112 345
-106 476 15 63 58 634 829 691 932 60 110 7 254 -118 318 -50 26 -150 33 -205
15z"/>
<path d="M6463 8309 c-111 -11 -198 -72 -255 -181 -34 -65 -32 -185 4 -254 34
-65 84 -113 155 -149 l57 -28 1235 -2 c680 -1 1282 2 1338 6 116 9 161 27 223
89 59 59 83 113 88 201 4 67 1 84 -20 130 -32 70 -98 136 -168 168 l-55 26
-1265 1 c-696 0 -1298 -3 -1337 -7z"/>
<path d="M5554 7265 c-38 -16 -73 -40 -100 -68 -22 -25 -147 -189 -278 -365
-130 -177 -240 -324 -245 -326 -4 -3 -57 33 -117 79 -60 46 -138 101 -174 122
-60 35 -71 38 -136 37 -153 -3 -259 -103 -258 -244 1 -114 25 -143 313 -374
237 -190 284 -214 407 -211 129 4 207 43 292 149 71 87 509 681 581 788 92
135 104 194 57 286 -45 87 -123 137 -227 146 -43 3 -69 -1 -115 -19z"/>
<path d="M6520 6740 c-132 -6 -171 -21 -244 -94 -73 -71 -91 -116 -89 -217 2
-101 20 -146 84 -210 69 -69 134 -92 279 -99 179 -8 2327 -8 2435 0 101 8 158
30 224 86 68 59 94 114 99 210 4 72 1 89 -20 135 -32 68 -87 123 -163 162
l-60 30 -1215 1 c-668 1 -1267 -1 -1330 -4z"/>
<path d="M5578 5701 c-43 -9 -71 -26 -117 -72 -32 -33 -69 -82 -375 -492 -81
-109 -154 -201 -161 -203 -8 -3 -61 33 -122 82 -142 115 -186 142 -247 151
-63 9 -62 9 -110 -1 -61 -12 -141 -68 -172 -122 -23 -38 -27 -58 -28 -118 0
-125 -4 -121 403 -448 138 -112 224 -148 334 -142 113 6 193 53 286 166 127
156 622 839 640 885 41 102 -17 236 -127 292 -44 23 -148 34 -204 22z"/>
<path d="M6460 5159 c-77 -7 -129 -32 -189 -91 -63 -62 -84 -115 -85 -213 0
-68 3 -88 26 -130 33 -63 88 -115 156 -149 l52 -27 1325 0 1324 0 58 30 c254
128 245 434 -17 571 -20 11 -277 13 -1305 14 -704 1 -1309 -2 -1345 -5z"/>
<path d="M4545 2632 c-163 -15 -357 -88 -501 -190 -274 -193 -446 -504 -457
-823 -13 -347 97 -614 351 -853 189 -177 430 -275 695 -280 395 -8 760 197
959 539 42 72 79 162 108 265 28 95 39 333 20 446 -43 268 -207 532 -431 695
-123 90 -302 166 -444 189 -68 11 -240 18 -300 12z m211 -676 c122 -32 222
-116 275 -230 135 -289 -120 -621 -437 -568 -132 22 -237 99 -305 224 -33 61
-34 66 -34 178 0 112 1 117 34 177 98 181 284 268 467 219z"/>
<path d="M8335 2628 c-396 -42 -766 -349 -890 -738 -103 -325 -46 -694 150
-955 97 -130 253 -266 381 -332 61 -33 215 -88 269 -97 80 -14 111 -17 187
-20 442 -16 869 258 1031 664 63 159 72 210 71 415 0 178 -2 196 -27 279 -163
528 -631 842 -1172 784z m230 -672 c174 -46 301 -196 310 -367 7 -130 -28
-223 -120 -315 -199 -201 -518 -148 -656 109 -33 60 -34 66 -34 177 0 112 1
116 35 179 96 178 284 266 465 217z"/>
<path d="M3027 3 c1267 -2 3339 -2 4605 0 1267 1 231 2 -2302 2 -2533 0 -3569
-1 -2303 -2z"/>
</g>
</svg>
